<svg width="512" height="448" viewBox="0 0 512 448" fill="none" xmlns="http://www.w3.org/2000/svg">
<path d="M96 64C96 28.7 124.7 0 160 0H448C483.3 0 512 28.7 512 64V384C512 419.3 483.3 448 448 448H80C35.8 448 0 412.2 0 368V96C0 78.3 14.3 64 32 64C49.7 64 64 78.3 64 96V368C64 376.8 71.2 384 80 384C88.8 384 96 376.8 96 368V64ZM160 88V168C160 181.3 170.7 192 184 192H296C309.3 192 320 181.3 320 168V88C320 74.7 309.3 64 296 64H184C170.7 64 160 74.7 160 88ZM368 80C368 88.8 375.2 96 384 96H432C440.8 96 448 88.8 448 80C448 71.2 440.8 64 432 64H384C375.2 64 368 71.2 368 80ZM368 176C368 184.8 375.2 192 384 192H432C440.8 192 448 184.8 448 176C448 167.2 440.8 160 432 160H384C375.2 160 368 167.2 368 176ZM160 272C160 280.8 167.2 288 176 288H432C440.8 288 448 280.8 448 272C448 263.2 440.8 256 432 256H176C167.2 256 160 263.2 160 272ZM160 368C160 376.8 167.2 384 176 384H432C440.8 384 448 376.8 448 368C448 359.2 440.8 352 432 352H176C167.2 352 160 359.2 160 368Z" fill="white"/>
</svg>
